<?xml version="1.0" encoding="utf-8"?>
<!-- Generator: Adobe Illustrator 23.1.0, SVG Export Plug-In . SVG Version: 6.00 Build 0)  -->
<svg version="1.1" id="Layer_1" xmlns="http://www.w3.org/2000/svg" xmlns:xlink="http://www.w3.org/1999/xlink" x="0px" y="0px"
	 viewBox="0 0 1200 1000" style="enable-background:new 0 0 1200 1000;" xml:space="preserve">
<g>
	<path d="M329.17,330.38c14.94,0,29.53,0,44.41,0c0,1.4,0,2.64,0,3.89c0.02,51.97-0.05,103.93,0.18,155.9
		c0.04,8.17,0.9,16.43,2.37,24.47c3.17,17.36,14.97,26.77,31.12,31.36c10.38,2.95,20.59,0.92,30.61-2.24
		c18.71-5.92,34.59-16.49,48.65-29.96c0.76-0.73,1.16-2.2,1.17-3.32c0.07-15.91,0.05-31.81,0.05-47.72c0-42.93,0-85.86,0-128.79
		c0-1.15,0-2.3,0-3.59c14.72,0,29.13,0,43.86,0c0,1.16,0,2.21,0,3.26c0,49.98-0.11,99.96,0.07,149.93
		c0.05,13.9,0.83,27.8,1.54,41.69c0.32,6.24,1.65,12.35,5.01,17.8c5.9,9.58,17.06,10.84,24.63,2.56c2.13-2.33,3.99-5.27,4.93-8.26
		c1.85-5.91,2.97-12.04,4.4-18.08c0.06-0.26,0.13-0.52,0.24-0.98c3.45,0,6.92,0,10.83,0c-0.99,5.52-1.82,10.94-2.94,16.3
		c-1.7,8.14-4.03,16.11-8.05,23.45c-8.01,14.63-20.5,22.1-37.09,22.8c-9.98,0.42-19.4-1.36-27.8-7.13
		c-9.38-6.44-13.84-15.98-16.38-26.55c-1.34-5.59-1.95-11.36-2.89-17.05c-0.11-0.68-0.26-1.35-0.46-2.39
		c-2.54,2.69-4.8,5.12-7.11,7.52c-16.43,17.1-34.64,31.63-57.3,39.79c-7.83,2.82-15.76,5.17-24.11,5.75
		c-14.92,1.04-28.31-3.42-40.62-11.56c-2.84-1.88-5.55-3.94-8.62-6.13c-0.06,1.2-0.12,2.14-0.14,3.08
		c-0.47,24.88,2.65,49.31,8.94,73.39c2.12,8.1,3.71,16.37,2.59,24.89c-1.06,8.08-4.11,15.08-10.48,20.43
		c-9.15,7.7-21.94,6.35-29.17-3.19c-6.77-8.93-8.98-19.22-7.13-29.98c1.83-10.63,4.88-21.05,7.4-31.56
		c2.87-11.97,4.11-24.16,5.24-36.39c2.73-29.58,2.01-59.22,2.04-88.85c0.06-53.68,0.02-107.37,0.02-161.05
		C329.17,332.78,329.17,331.7,329.17,330.38z"/>
	<path d="M687.34,464.78c5.59,21.23,3.69,40.87-10.52,57.69c-15.74,18.64-36.84,25.42-60.56,22.34
		c-53.32-6.91-67.16-68.25-36.65-102.21c4.62-5.14,4.97-9.27,3.69-16.08c-2.27-12.07-1.41-24.69-2.57-37.01
		c-0.88-9.33-2.22-18.72-4.48-27.8c-4.32-17.44-0.41-33.95,2.47-50.65c1.31-0.3,2.61-0.6,3.92-0.9c3.47,7.7,6.93,15.41,10.53,23.39
		c10.47,4.83,14.5-4.62,20.57-10.11c2.98-2.7,6.49-4.8,9.77-7.17c1.51,4.44,4.99,9.31,4.13,13.23c-2.07,9.5-6.58,18.43-9.26,27.83
		c-1.42,5-2.96,11.28-1.18,15.64c6.08,14.82,15.74,25.17,33.52,27.57c16.23,2.19,25.22,14.82,27.76,30.31
		c4.2,25.56-1.66,49.1-19.09,68.77c-8.29,9.34-18.88,13.85-31.79,10.21c-9.4-2.65-15.51-8.36-17.88-17.94
		c-3.25-13.11,6.91-28.42,19.3-27.23c4.98,0.48,9.73,5.5,14.04,9.1c1.06,0.88-0.04,4.34-0.15,6.62c-2.22-0.17-5.23,0.52-6.52-0.66
		c-4.37-3.99-8.66-3.48-9.99,1.49c-0.75,2.77,2.25,8.31,5.08,9.95c8.72,5.04,20.84-1.94,23.98-12.94
		c3.79-13.25-2.93-28.26-15.36-34.31c-13.92-6.78-30.72-3.78-39.04,6.98c-15.14,19.57-10.99,53.75,8.36,68.84
		c23.83,18.6,61.06,5.45,71.81-25.88C684.3,484.87,685.22,475.17,687.34,464.78z"/>
	<path d="M785.4,522.33c-0.54-0.5-1.06-1.08-1.52-1.76l2.2,3.54L785.4,522.33z M794.19,535.6c2.74-1.64,5.19-3.48,7.36-5.52
		C798.03,533.02,795.4,534.83,794.19,535.6z"/>
	<path d="M879.34,468.1c-4.54-6.82-6.82-12.2-6.82-16.14c0-3.17,0.6-6.5,1.82-9.99c0.6-1.22,0.91-2.39,0.91-3.52
		c0-0.61-0.38-0.91-1.14-0.91c-1.06,0-4.24,0.43-9.54,1.3c-5.31,0.88-10.57,1.99-15.8,3.36c-6.44,17.79-18.93,36.59-37.5,56.36
		c0,0-8.89,14.31-27.39,22.01c0.46,0.68,0.98,1.26,1.52,1.76l0.68,1.78l-2.2-3.54c-0.53-0.75-1.02-1.61-1.44-2.57
		c-4.7-10.73-9.26-21.4-1.56-33.32c4.16-6.45,6.72-14.24,8.58-21.78c1.54-6.29,4.27-9.84,10.46-11.76c2.4-0.73,3.98-4.13,5.94-6.33
		c-2.86-1.15-5.71-2.37-8.59-3.43c-1.19-0.45-2.51-0.54-3.1-0.65c-0.46-8.23,0.08-15.9-1.61-23.05c-1.15-4.87-5.2-12.45-8.32-12.64
		c-4.76-0.28-11.78,3.6-14.35,7.85c-4.69,7.72-6.46,17.16-10.18,25.56c-2.41,5.46-8.06,10.12-8.66,15.54
		c-0.57,5.12,4.36,10.62,5.45,16.24c1.42,7.3,1.27,14.91,2.09,22.35c1.57,14.36-6.44,28.5-20.86,35.18
		c-1.04-2.98-2.85-5.85-2.9-8.75c-0.18-9.16,0.57-18.34,0.38-27.5c-0.05-2.66-2.01-5.27-3.09-7.91c-2.64,1.3-5.96,2.02-7.77,4.07
		c-2.01,2.28-2.57,5.79-3.86,8.71c-4.04,9.24-8.12,18.46-12.17,27.69c-1.15-0.46-2.3-0.91-3.44-1.36
		c-1.68-16.85,6.67-28.96,18.65-39.67c2.68-2.39,4.05-6.25,6.02-9.45c-4.77-0.83-10.33-3.66-14.15-2.13
		c-12.89,5.16-19.62,16.8-22.82,29.33c-2.26,8.88-2.6,19.16-0.46,28.01c2.71,11.26,11.97,12.68,20.26,4.59
		c3.35-3.27,6.25-7.02,9.54-10.79c10.2,20.6,19.77,21.89,34.35,5.39c2.7-3.05,5.16-6.29,8.01-9.77c2.81,4.61,4.87,8.81,7.68,12.43
		c5.65,7.26,12.96,10.39,21.53,5.39c0,0,0.16-0.09,0.49-0.3c0.07-0.04,0.14-0.09,0.22-0.14c1.21-0.77,3.83-2.57,7.36-5.52
		c9.47-7.91,25.3-24.1,36.36-50.81c3.37-4.7,6.5-9.38,9.38-14.01c1.67,5.38,5.08,12.05,10.23,20c5.15,7.94,7.72,14.31,7.72,19.08
		c0,4.92-2.03,9.53-6.08,13.81c-4.05,4.28-8.39,6.42-13.01,6.42c-4.62,0-7.87-3.1-9.77-9.32c-1.9-6.21-4.05-9.31-6.48-9.31
		c-1.82,0-4.82,2.53-9.03,7.6c-4.21,5.08-6.32,8.52-6.32,10.34c0,3.12,2.13,6.03,6.37,8.75c4.24,2.72,8.93,4.09,14.09,4.09
		c11.89,0,23.38-5.38,34.48-16.14c11.1-10.75,16.66-21.93,16.66-33.51C886.15,481.24,883.88,474.93,879.34,468.1z M772.67,445.25
		c2.49-9.45,4.82-18.31,7.9-29.95C786.48,433.59,783.59,444.06,772.67,445.25z"/>
	<path d="M786.07,524.11l-2.2-3.54c0.46,0.68,0.98,1.26,1.52,1.76L786.07,524.11z"/>
</g>
</svg>
